<svg xmlns="http://www.w3.org/2000/svg" viewBox="0 0 120 120" fill="none">
  <circle cx="60" cy="60" r="60" fill="#E5E7EB"/>
  <circle cx="60" cy="60" r="36" fill="#F9FAFB" stroke="#9CA3AF" stroke-width="2"/>
  <!-- Football pentagon pattern -->
  <path d="M60 30 L72 42 L68 58 L52 58 L48 42 Z" fill="#374151"/>
  <path d="M72 42 L88 48 L84 66 L68 58 Z" fill="#374151"/>
  <path d="M88 48 L90 68 L84 66 Z" fill="#374151"/>
  <path d="M48 42 L32 48 L36 66 L52 58 Z" fill="#374151"/>
  <path d="M32 48 L30 68 L36 66 Z" fill="#374151"/>
  <path d="M52 58 L48 76 L60 84 L72 76 L68 58 Z" fill="#374151"/>
  <path d="M36 66 L30 68 L40 82 L48 76 L52 58 Z" fill="#374151"/>
  <path d="M84 66 L90 68 L80 82 L72 76 L68 58 Z" fill="#374151"/>
</svg>
